<svg width="168" height="52" viewBox="0 0 168 52" fill="none" xmlns="http://www.w3.org/2000/svg">
<path fill-rule="evenodd" clip-rule="evenodd" d="M14 0V6.15519H27.4124C29.4351 6.15519 31.2893 6.58968 32.9749 7.45864C34.6605 8.32761 36.0089 9.58281 37.0203 11.2241C38.0316 12.8173 38.5373 14.7725 38.5373 17.0897C38.5373 19.3586 38.0316 21.3139 37.0203 22.9553C36.0571 24.5966 34.7087 25.8518 32.9749 26.7208C31.2893 27.5415 29.4111 27.9518 27.3402 27.9518H14V34.107H28.1348C31.4579 34.107 34.4197 33.3829 37.0203 31.9346C39.6209 30.4863 41.6676 28.4828 43.1606 25.9243C44.7017 23.3173 45.4723 20.3725 45.4723 17.0897C45.4723 13.6621 44.7017 10.669 43.1606 8.11037C41.6195 5.55174 39.5487 3.57242 36.948 2.17242C34.3474 0.72414 31.4579 0 28.2793 0H14ZM78.3478 44.5346V50.6898H101.03C103.824 50.6898 106.305 50.0381 108.472 48.7346C110.638 47.4311 112.3 45.6449 113.456 43.376C114.66 41.0587 115.262 38.4277 115.262 35.4829C115.262 32.8277 114.684 30.4621 113.528 28.3863C112.373 26.3104 110.711 24.669 108.543 23.4622C106.376 22.2552 103.776 21.6517 100.742 21.6517H90.99C89.4486 21.6517 88.0762 21.2897 86.8719 20.5655C85.7158 19.8414 84.8253 18.9001 84.1994 17.7414C83.621 16.5345 83.3322 15.2793 83.3322 13.9759C83.3322 12.6241 83.6451 11.369 84.271 10.2104C84.8977 9.00349 85.8124 8.03795 87.0167 7.31381C88.2201 6.5414 89.6167 6.15519 91.2063 6.15519H112.012V0H90.5563C87.7632 0 85.2831 0.62759 83.1158 1.88276C80.9969 3.13794 79.3348 4.85173 78.1311 7.02416C76.9752 9.1966 76.3973 11.6345 76.3973 14.338C76.3973 16.9931 76.9993 19.3829 78.2033 21.507C79.4555 23.5828 81.165 25.2242 83.3322 26.4311C85.4994 27.5897 88.0038 28.169 90.8451 28.169H100.38C102.067 28.169 103.487 28.5552 104.643 29.3277C105.847 30.0518 106.762 31.0415 107.388 32.2967C108.062 33.5035 108.399 34.8311 108.399 36.2794C108.399 37.6794 108.062 39.007 107.388 40.2622C106.713 41.5174 105.774 42.5553 104.571 43.376C103.367 44.1484 101.922 44.5346 100.237 44.5346H78.3478ZM135.847 48.6622C139.025 49.9657 142.541 50.6415 146.393 50.6898H152.895V44.5346H146.611C143.865 44.4863 141.337 43.9795 139.025 43.0139C136.713 42.0484 134.691 40.7208 132.957 39.0312C131.272 37.2932 129.947 35.2656 128.984 32.9483C128.021 30.5829 127.539 28.0484 127.539 25.3449C127.539 22.5932 128.021 20.0586 128.984 17.7414C129.947 15.4242 131.272 13.4207 132.957 11.731C134.691 9.99315 136.713 8.64141 139.025 7.67588C141.337 6.66209 143.865 6.15519 146.611 6.15519H152.895V0H146.393C142.541 0.0482753 139.025 0.748275 135.847 2.10001C132.668 3.40345 129.923 5.21381 127.612 7.53106C125.348 9.84827 123.59 12.5276 122.338 15.569C121.134 18.6104 120.532 21.8691 120.532 25.3449C120.532 28.8208 121.134 32.0794 122.338 35.1208C123.59 38.1622 125.348 40.8415 127.612 43.1587C129.923 45.476 132.668 47.3105 135.847 48.6622Z" fill="url(#paint0_linear_65_1404)"/>
<path d="M154.182 50.6898V44.5305H162.517V6.14891H154.182V0H167.363L167.314 50.6898H154.182Z" fill="url(#paint1_linear_65_1404)"/>
<path d="M13.1814 50.6898V44.5305H4.84609V6.14891H13.1814V0H0L0.0496132 50.6898H13.1814Z" fill="url(#paint2_linear_65_1404)"/>
<path d="M60.1 24C64.0333 24 67.0333 24.95 69.1 26.85C71.2 28.7167 72.25 31.55 72.25 35.35V51H66.35V47.75C65.5833 48.9167 64.4833 49.8167 63.05 50.45C61.65 51.05 59.95 51.35 57.95 51.35C55.95 51.35 54.2 51.0167 52.7 50.35C51.2 49.65 50.0333 48.7 49.2 47.5C48.4 46.2667 48 44.8833 48 43.35C48 40.95 48.8833 39.0333 50.65 37.6C52.45 36.1333 55.2667 35.4 59.1 35.4H66V35C66 33.1333 65.4333 31.7 64.3 30.7C63.2 29.7 61.55 29.2 59.35 29.2C57.85 29.2 56.3667 29.4333 54.9 29.9C53.4667 30.3667 52.25 31.0167 51.25 31.85L48.8 27.3C50.2 26.2333 51.8833 25.4167 53.85 24.85C55.8167 24.2833 57.9 24 60.1 24ZM59.25 46.8C60.8167 46.8 62.2 46.45 63.4 45.75C64.6333 45.0167 65.5 43.9833 66 42.65V39.55H59.55C55.95 39.55 54.15 40.7333 54.15 43.1C54.15 44.2333 54.6 45.1333 55.5 45.8C56.4 46.4667 57.65 46.8 59.25 46.8Z" fill="url(#paint3_linear_65_1404)"/>
<defs>
<linearGradient id="paint0_linear_65_1404" x1="83.4475" y1="0" x2="83.4475" y2="50.6898" gradientUnits="userSpaceOnUse">
<stop stop-color="#2F80ED"/>
<stop offset="0.567708" stop-color="#3650D8"/>
<stop offset="1" stop-color="#4109B8"/>
</linearGradient>
<linearGradient id="paint1_linear_65_1404" x1="160.772" y1="0" x2="160.772" y2="50.6898" gradientUnits="userSpaceOnUse">
<stop stop-color="#2F80ED"/>
<stop offset="0.567708" stop-color="#3650D8"/>
<stop offset="1" stop-color="#4109B8"/>
</linearGradient>
<linearGradient id="paint2_linear_65_1404" x1="6.5907" y1="0" x2="6.5907" y2="50.6898" gradientUnits="userSpaceOnUse">
<stop stop-color="#2F80ED"/>
<stop offset="0.567708" stop-color="#3650D8"/>
<stop offset="1" stop-color="#4109B8"/>
</linearGradient>
<linearGradient id="paint3_linear_65_1404" x1="60.125" y1="24" x2="60.125" y2="51.35" gradientUnits="userSpaceOnUse">
<stop stop-color="#2F80ED"/>
<stop offset="0.567708" stop-color="#3650D8"/>
<stop offset="1" stop-color="#4109B8"/>
</linearGradient>
</defs>
</svg>
